<?xml version="1.0" encoding="utf-8"?>
<!-- Generator: Adobe Illustrator 15.1.0, SVG Export Plug-In . SVG Version: 6.00 Build 0)  -->
<!DOCTYPE svg PUBLIC "-//W3C//DTD SVG 1.1//EN" "http://www.w3.org/Graphics/SVG/1.1/DTD/svg11.dtd">
<svg version="1.1" id="Layer_1" xmlns="http://www.w3.org/2000/svg" xmlns:xlink="http://www.w3.org/1999/xlink" x="0px" y="0px"
	 width="19px" height="35px" viewBox="0 140.5 19 35" enable-background="new 0 140.5 19 35" xml:space="preserve">
<path d="M12.438,173.411c-0.174,0.174-0.523,0.348-0.871,0.522l-0.522,0.174l-0.174,0.523c0,0.174-0.348,0.522-0.696,0.871
	c-0.174,0-0.522,0-0.697,0c-0.348,0-0.522,0-0.696,0c-0.349-0.348-0.522-0.697-0.697-0.871l-0.174-0.523l-0.522-0.174
	c-0.522-0.174-0.871-0.348-0.871-0.522v-4.876h5.92V173.411z"/>
<path d="M13.656,165.575l-0.696,0.871H5.995l-0.697-0.871c-0.174-1.567-0.87-8.707-2.264-13.756
	c3.309,0.696,9.229,0.696,13.234-0.174C14.701,156.694,13.831,164.008,13.656,165.575z"/>
<path d="M17.14,149.032c0,0.174-0.175,0.174-0.175,0.348c-4.004,1.394-12.537,1.045-14.975,0.174c0-0.174-0.174-0.348-0.174-0.522
	c-0.871-2.089-2.786-5.746-1.219-6.617c2.612-1.741,7.139-1.915,8.88-1.915c1.741,0,6.269,0.174,8.88,1.915
	C19.925,143.286,18.01,146.943,17.14,149.032z"/>
</svg>
