<?xml version="1.0" encoding="utf-8"?>
<svg version="1.1" id="Layer_1" xmlns="http://www.w3.org/2000/svg" xmlns:xlink="http://www.w3.org/1999/xlink" x="0px" y="0px"
	 width="25px" height="45px" viewBox="0 0 25 45" enable-background="new 0 0 25 45" xml:space="preserve">
<g>
	<path fill="#FFFFFF" d="M15.99,42.313c-0.223,0.224-0.671,0.446-1.119,0.671L14.2,43.208l-0.224,0.672
		c0,0.224-0.447,0.672-0.896,1.12c-0.223,0-0.671,0-0.896,0c-0.447,0-0.671,0-0.895,0c-0.449-0.448-0.672-0.896-0.896-1.12
		l-0.224-0.672L9.5,42.984c-0.671-0.225-1.12-0.447-1.12-0.671v-6.27h7.61V42.313z"/>
</g>
<g>
	<path fill="#FFFFFF" d="M17.558,32.238l-0.896,1.119H7.708l-0.896-1.119c-0.224-2.015-1.118-11.194-2.911-17.687
		c4.254,0.896,11.867,0.896,17.014-0.224C18.901,20.819,17.782,30.224,17.558,32.238z"/>
</g>
<g>
	<path fill="#FFBB00" d="M22.037,10.97c0,0.224-0.226,0.224-0.226,0.447c-5.147,1.792-16.118,1.344-19.253,0.225
		c0-0.225-0.224-0.448-0.224-0.672c-1.12-2.686-3.582-7.388-1.567-8.508C4.125,0.224,9.946,0,12.185,0
		c2.238,0,8.06,0.224,11.417,2.462C25.617,3.582,23.154,8.284,22.037,10.97z"/>
</g>
</svg>
